<?xml version="1.0" standalone="no"?>
<!DOCTYPE svg PUBLIC "-//W3C//DTD SVG 20010904//EN"
 "http://www.w3.org/TR/2001/REC-SVG-20010904/DTD/svg10.dtd">
<svg version="1.0" xmlns="http://www.w3.org/2000/svg"
 width="300.000000pt" height="300.000000pt" viewBox="0 0 300.000000 300.000000"
 preserveAspectRatio="xMidYMid meet">
<metadata>
Created by potrace 1.11, written by Peter Selinger 2001-2013
</metadata>
<g transform="translate(0.000000,300.000000) scale(0.100000,-0.100000)"
fill="#000000" stroke="none">
<path d="M1337 2994 c-2 -3 -13 -6 -23 -8 -11 -2 -61 -18 -112 -34 -66 -21
-101 -28 -120 -23 -40 12 -70 -3 -84 -40 -3 -9 -39 -29 -78 -45 -76 -30 -149
-93 -161 -138 -4 -15 8 -64 31 -135 21 -61 37 -111 34 -111 -2 0 1 -11 6 -24
8 -21 4 -28 -24 -50 -19 -14 -48 -47 -65 -73 -25 -38 -31 -57 -29 -91 2 -37 8
-49 42 -78 43 -37 53 -66 30 -85 -18 -15 -19 -43 -1 -33 6 4 3 -2 -8 -13 -11
-11 -24 -16 -30 -11 -31 26 -147 108 -152 108 -9 0 4 -90 22 -155 26 -95 56
-166 91 -220 18 -27 29 -51 24 -53 -13 -5 -68 36 -116 86 -22 23 -45 42 -49
42 -11 0 0 -101 16 -147 19 -54 65 -121 123 -177 l51 -48 -45 28 c-25 16 -46
32 -48 37 -2 4 -10 7 -18 7 -40 0 14 -118 82 -180 110 -99 194 -154 419 -274
72 -38 187 -73 273 -82 26 -3 56 -7 67 -9 11 -2 26 -4 33 -4 22 -2 12 -25 -31
-71 -52 -56 -79 -91 -117 -152 -19 -31 -43 -54 -70 -67 -38 -18 -156 -103
-224 -161 -32 -28 -115 -149 -135 -198 -8 -18 -19 -32 -25 -32 -15 0 -76 38
-76 48 0 4 -18 28 -41 52 -42 46 -109 141 -109 154 0 5 -8 20 -18 34 -16 24
-55 114 -107 252 -64 166 -110 356 -123 510 -14 168 -5 461 18 539 4 16 6 31
4 34 -6 5 31 188 52 257 9 30 48 147 86 260 38 113 72 220 75 239 11 75 -44
173 -100 178 -135 11 -340 -316 -391 -622 -34 -205 -40 -642 -12 -791 3 -12 7
-39 10 -60 15 -92 26 -161 31 -184 2 -14 7 -38 10 -55 4 -16 12 -57 20 -90 8
-33 16 -71 19 -85 7 -39 63 -201 94 -272 104 -237 317 -537 456 -641 l49 -37
699 0 698 0 10 26 c34 87 -8 167 -118 229 l-36 20 -3 115 c-1 63 -4 124 -6
135 -2 11 3 39 11 63 10 30 13 68 10 126 -5 75 -9 88 -46 147 -23 35 -38 67
-34 71 4 4 36 14 72 22 220 53 332 88 361 113 8 7 18 13 22 13 21 0 140 82
181 124 75 78 176 248 191 322 12 56 23 139 19 143 -2 2 -11 -5 -21 -16 -10
-10 -15 -14 -12 -8 16 25 35 150 30 190 -1 6 -11 -1 -22 -15 l-20 -25 8 35
c14 63 7 217 -12 281 -19 62 -30 66 -39 14 -2 -16 -8 -41 -11 -55 -12 -49 -13
-55 -14 -63 -2 -20 -21 8 -32 45 -6 23 -29 80 -51 127 -36 74 -41 93 -38 141
13 214 -8 343 -82 497 -31 66 -41 77 -76 87 -17 6 -30 -1 -60 -31 -54 -54
-133 -157 -176 -230 l-36 -61 -52 13 c-61 16 -109 22 -233 31 -52 4 -100 13
-113 22 -26 17 -137 23 -164 10 -12 -6 -18 -5 -18 2 0 6 -4 9 -10 5 -5 -3 -16
20 -25 52 -42 151 -58 188 -97 225 -22 21 -45 39 -51 39 -27 3 -69 8 -96 12
-16 3 -32 3 -34 1z m-32 -843 c3 -5 2 -12 -3 -15 -5 -3 -9 1 -9 9 0 17 3 19
12 6z m-60 -50 c-9 -8 -36 -10 -30 -2 2 4 11 8 20 8 8 0 13 -3 10 -6z m102 -6
c0 -8 -4 -12 -9 -9 -5 3 -6 10 -3 15 9 13 12 11 12 -6z m-522 -4 c3 -5 2 -12
-3 -15 -5 -3 -9 1 -9 9 0 17 3 19 12 6z m202 -36 c0 -8 -4 -12 -9 -9 -5 3 -6
10 -3 15 9 13 12 11 12 -6z m120 0 c0 -8 -4 -12 -9 -9 -5 3 -6 10 -3 15 9 13
12 11 12 -6z m143 -19 c0 -2 -6 -9 -14 -15 -11 -9 -16 -9 -22 0 -4 7 -3 9 4 5
6 -3 13 -2 17 4 6 10 15 14 15 6z m-304 -18 c4 -7 4 -10 -1 -6 -4 4 -15 2 -24
-5 -14 -11 -14 -10 -2 6 16 20 18 21 27 5z m60 0 c3 -4 -1 -5 -10 -4 -8 1 -18
5 -22 8 -3 4 1 5 10 4 8 -1 18 -5 22 -8z m119 3 c-9 -8 -36 -10 -30 -2 2 4 11
8 20 8 8 0 13 -3 10 -6z m-259 -37 c1 -9 0 -13 -4 -10 -3 4 -7 14 -8 22 -1 9
0 13 4 10 3 -4 7 -14 8 -22z m-61 -3 c-9 -8 -36 -10 -30 -2 2 4 11 8 20 8 8 0
13 -3 10 -6z m260 0 c-9 -8 -36 -10 -30 -2 2 4 11 8 20 8 8 0 13 -3 10 -6z
m-90 -20 c-9 -8 -36 -10 -30 -2 2 4 11 8 20 8 8 0 13 -3 10 -6z m-170 -20 c-9
-8 -36 -10 -30 -2 2 4 11 8 20 8 8 0 13 -3 10 -6z m101 -6 c-1 -8 -5 -17 -8
-21 -5 -4 -4 16 1 34 3 9 9 -1 7 -13z m159 6 c-9 -8 -36 -10 -30 -2 2 4 11 8
20 8 8 0 13 -3 10 -6z m-121 -39 c3 -5 -1 -9 -9 -9 -8 0 -12 4 -9 9 3 4 7 8 9
8 2 0 6 -4 9 -8z"/>
</g>
</svg>
